<?xml version="1.0" standalone="no"?>
<!DOCTYPE svg PUBLIC "-//W3C//DTD SVG 20010904//EN"
 "http://www.w3.org/TR/2001/REC-SVG-20010904/DTD/svg10.dtd">
<svg version="1.0" xmlns="http://www.w3.org/2000/svg"
 width="238.000000pt" height="238.000000pt" viewBox="0 0 238.000000 238.000000"
 preserveAspectRatio="xMidYMid meet">
<metadata>
Created by potrace 1.11, written by Peter Selinger 2001-2013
</metadata>
<g transform="translate(0.000000,238.000000) scale(0.100000,-0.100000)"
fill="#000000" stroke="none">
<path d="M905 2340 c-13 -19 -94 -159 -181 -310 -86 -151 -205 -356 -262 -455
-144 -247 -164 -285 -155 -286 12 0 246 0 259 0 5 1 50 71 100 156 l89 155
223 0 222 0 28 50 c15 28 41 73 58 101 l31 51 148 -256 c81 -141 153 -256 159
-257 28 -2 260 1 262 4 2 1 -56 104 -128 227 -72 124 -139 241 -150 260 -148
260 -332 577 -339 585 -6 5 -81 10 -176 10 l-166 1 -22 -36z m231 -222 c20
-35 49 -85 65 -113 15 -27 46 -81 68 -119 22 -39 39 -72 37 -74 -6 -5 -417 -4
-423 2 -2 2 9 26 25 52 16 27 55 94 87 149 85 146 96 165 100 165 2 0 21 -28
41 -62z"/>
<path d="M147 999 c-31 -54 -57 -101 -57 -106 0 -4 202 -8 448 -8 l448 0 -130
-225 c-71 -124 -159 -276 -195 -339 -36 -63 -70 -114 -75 -113 -5 0 -22 24
-39 54 -16 29 -32 58 -37 63 -4 6 -22 37 -40 70 -18 33 -43 76 -56 97 l-23 36
-136 1 c-104 0 -136 -2 -132 -12 4 -10 252 -440 286 -497 8 -12 40 -15 176
-15 177 -1 172 -2 203 53 12 22 182 317 462 802 66 113 122 212 125 220 4 13
-16 15 -131 15 l-136 0 -56 -97 c-31 -54 -59 -98 -62 -98 -3 0 -31 44 -62 97
l-57 98 -333 0 -334 0 -57 -96z"/>
<path d="M1590 1085 c-4 -5 -135 -230 -291 -500 -155 -269 -293 -508 -306
-530 -12 -22 -23 -42 -23 -45 0 -3 61 -5 137 -5 l136 0 98 170 c54 94 122 210
150 258 l51 89 50 -89 c28 -48 56 -94 63 -102 11 -11 62 -14 251 -15 145 -1
242 3 250 9 7 6 40 59 75 119 l62 109 -21 41 c-12 22 -36 66 -54 97 -18 31
-77 134 -132 228 -54 94 -101 172 -105 172 -37 7 -384 2 -391 -6z m324 -350
c63 -110 113 -201 111 -203 -4 -5 -466 -4 -471 0 -6 7 231 416 238 409 3 -3
58 -96 122 -206z"/>
</g>
</svg>
